ModelForces
version=1
nRows=4
nColumns=155
inDegrees=no

This file contains the forces exerted on a model during a simulation.

A force is a generalized force, meaning that it can be either a force (N) or a torque (Nm).

Units are S.I. units (second, meters, Newtons, ...)
Angles are in degrees.

endheader
time	glut_med1_r	glut_med2_r	glut_med3_r	glut_min1_r	glut_min2_r	glut_min3_r	semimem_r	semiten_r	bifemlh_r	bifemsh_r	sar_r	add_long_r	add_brev_r	add_mag1_r	add_mag2_r	add_mag3_r	tfl_r	pect_r	grac_r	glut_max1_r	glut_max2_r	glut_max3_r	iliacus_r	psoas_r	quad_fem_r	gem_r	peri_r	rect_fem_r	vas_med_r	vas_int_r	vas_lat_r	med_gas_r	lat_gas_r	soleus_r	tib_post_r	flex_dig_r	flex_hal_r	tib_ant_r	per_brev_r	per_long_r	per_tert_r	ext_dig_r	ext_hal_r	glut_med1_l	glut_med2_l	glut_med3_l	glut_min1_l	glut_min2_l	glut_min3_l	semimem_l	semiten_l	bifemlh_l	bifemsh_l	sar_l	add_long_l	add_brev_l	add_mag1_l	add_mag2_l	add_mag3_l	tfl_l	pect_l	grac_l	glut_max1_l	glut_max2_l	glut_max3_l	iliacus_l	psoas_l	quad_fem_l	gem_l	peri_l	rect_fem_l	vas_med_l	vas_int_l	vas_lat_l	med_gas_l	lat_gas_l	soleus_l	tib_post_l	flex_dig_l	flex_hal_l	tib_ant_l	per_brev_l	per_long_l	per_tert_l	ext_dig_l	ext_hal_l	ercspn_r	ercspn_l	intobl_r	intobl_l	extobl_r	extobl_l	femur_lat_meniscii_r.femur_lat_r.force.X	femur_lat_meniscii_r.femur_lat_r.force.Y	femur_lat_meniscii_r.femur_lat_r.force.Z	femur_lat_meniscii_r.femur_lat_r.torque.X	femur_lat_meniscii_r.femur_lat_r.torque.Y	femur_lat_meniscii_r.femur_lat_r.torque.Z	femur_lat_meniscii_r.meniscus_lat_r.force.X	femur_lat_meniscii_r.meniscus_lat_r.force.Y	femur_lat_meniscii_r.meniscus_lat_r.force.Z	femur_lat_meniscii_r.meniscus_lat_r.torque.X	femur_lat_meniscii_r.meniscus_lat_r.torque.Y	femur_lat_meniscii_r.meniscus_lat_r.torque.Z	femur_med_meniscii_r.femur_med_r.force.X	femur_med_meniscii_r.femur_med_r.force.Y	femur_med_meniscii_r.femur_med_r.force.Z	femur_med_meniscii_r.femur_med_r.torque.X	femur_med_meniscii_r.femur_med_r.torque.Y	femur_med_meniscii_r.femur_med_r.torque.Z	femur_med_meniscii_r.meniscus_med_r.force.X	femur_med_meniscii_r.meniscus_med_r.force.Y	femur_med_meniscii_r.meniscus_med_r.force.Z	femur_med_meniscii_r.meniscus_med_r.torque.X	femur_med_meniscii_r.meniscus_med_r.torque.Y	femur_med_meniscii_r.meniscus_med_r.torque.Z	femur_med_tibia_r.tibia_upper_r.force.X	femur_med_tibia_r.tibia_upper_r.force.Y	femur_med_tibia_r.tibia_upper_r.force.Z	femur_med_tibia_r.tibia_upper_r.torque.X	femur_med_tibia_r.tibia_upper_r.torque.Y	femur_med_tibia_r.tibia_upper_r.torque.Z	femur_med_tibia_r.femur_med_r.force.X	femur_med_tibia_r.femur_med_r.force.Y	femur_med_tibia_r.femur_med_r.force.Z	femur_med_tibia_r.femur_med_r.torque.X	femur_med_tibia_r.femur_med_r.torque.Y	femur_med_tibia_r.femur_med_r.torque.Z	femur_lat_tibia_r.tibia_upper_r.force.X	femur_lat_tibia_r.tibia_upper_r.force.Y	femur_lat_tibia_r.tibia_upper_r.force.Z	femur_lat_tibia_r.tibia_upper_r.torque.X	femur_lat_tibia_r.tibia_upper_r.torque.Y	femur_lat_tibia_r.tibia_upper_r.torque.Z	femur_lat_tibia_r.femur_lat_r.force.X	femur_lat_tibia_r.femur_lat_r.force.Y	femur_lat_tibia_r.femur_lat_r.force.Z	femur_lat_tibia_r.femur_lat_r.torque.X	femur_lat_tibia_r.femur_lat_r.torque.Y	femur_lat_tibia_r.femur_lat_r.torque.Z	aACL_R	pACL_R	aPCL_R	pPCL_R	aMCL_R	mMCL_R	pMCL_R	aLCL_R	mLCL_R	pLCL_R	aPCL_L	pPCL_L	aMCL_L	aLCL_L
      0.11103628	     10.52290408	     11.12292761	     11.99574741	      5.07864960	      5.82499972	      6.47637964	    112.59105710	    166.49950448	    226.25243268	    361.67057217	    126.02693768	     11.10634847	      7.86248693	      0.00000000	      4.79182387	      8.34818918	      5.03649892	      3.86304819	     99.68739216	      7.19099311	     10.94943564	      8.26135084	     32.70417778	     24.40878199	      6.97128183	      4.50724255	      4.60005973	     38.22776823	      0.00000000	      0.00000000	      0.00000000	     30.27578678	      0.56298418	      0.00000000	      0.00000000	      1.28218517	      0.00000000	     29.87266593	      3.62208761	      4.26974752	      6.65287650	     17.51046311	      5.33283548	     10.52290408	     11.12292761	     11.99574741	      5.07864960	      5.82499972	      6.47637964	      0.00000000	      8.37736389	     14.87467016	     13.98682389	      2.89407354	     11.10634847	      7.86248693	      0.00000000	      4.79182387	      8.34818918	      6.76816749	      3.86304819	      3.00178221	      7.19099311	     10.94943564	      8.26135084	     32.70417778	     24.40878199	      6.97128183	      4.50724255	      4.60005973	     23.08676498	      0.00000000	      0.00000000	      0.00000000	     17.21776698	      8.78106544	     58.14867586	     57.43132468	      7.60492252	      6.97904904	     16.72071998	      9.34956872	     21.67104530	      3.76838264	     11.83843550	      3.98703953	     47.83250073	     47.83250073	     18.14364713	     18.14364713	     35.10371304	     35.10371304	     36.35478119	    238.25863577	     35.40098033	    -20.30671715	      0.93978177	     13.99608960	    -36.35478119	   -238.25863577	    -35.40098033	      7.25313022	     -1.38964006	      2.43687107	    -22.86875258	     48.18195313	      6.51210779	     -1.53632435	      0.52589261	     -9.36669449	     22.86875258	    -48.18195313	     -6.51210779	     -0.85610054	     -0.54877822	      1.13447519	    -98.47024438	   -514.10118247	    119.56387513	    -12.26931295	      2.54432308	      0.84156775	     98.47024438	    514.10118247	   -119.56387513	     59.02798291	     -1.47312265	     42.27382190	    -43.42130748	   -167.82281585	    -42.78860615	      5.70341948	     -1.58971726	      0.44897915	     43.42130748	    167.82281585	     42.78860615	    -21.72446427	      1.04703422	     17.93744143	     10.04839295	    -13.01099262	      0.00000000	     61.11823509	      0.00000000	      0.00000000	    -37.27757552	      0.00000000	      0.00000000	      0.00000000	      0.00000000	      0.00000000	      0.00000001	      0.00000000
      0.11188953	     10.92087403	     11.06098264	     11.92892982	      5.05134117	      5.79490417	      6.44509415	    112.16113454	    166.30171077	    223.48448257	    358.85745448	    126.05424153	     11.04368970	      7.82058974	      0.00000000	      4.77282052	      8.29979499	      5.03426754	      3.99321983	     99.60980422	      7.15093856	     10.88785605	      8.21430686	     32.58815766	     24.27665130	      6.94196590	      4.48818487	      4.72399801	     38.05161759	      0.00000000	      0.00000000	      0.00000000	     32.35365182	      0.57255287	      0.00000000	      0.00000000	      0.97785208	      0.00000000	     29.13718664	      3.96163755	      4.47286431	      9.31515531	     17.64812941	      5.31034671	     10.92087403	     11.06098264	     11.92892982	      5.05134117	      5.79490417	      6.44509415	      0.00000000	      8.32829470	     14.85857466	     13.90997220	      2.87858193	     11.04368970	      7.82058974	      0.00000000	      4.77282052	      8.29979499	      6.73949571	      3.99321983	      2.98544602	      7.15093856	     10.88785605	      8.21430686	     32.58815766	     24.27665130	      6.94196590	      4.48818487	      4.72399801	     22.96459848	      0.00000000	      0.00000000	      0.00000000	     17.47214967	      8.87457129	     58.14541540	     57.33380642	      7.52481597	      6.89375165	     16.68598699	      9.31208554	     21.62887395	      3.74818901	     11.89407842	      3.99760021	     47.57476267	     47.57476267	     18.03920811	     18.03920811	     35.00759676	     35.00759676	     39.82157772	    247.19607231	     34.50864491	    -20.15493403	      1.01721100	     15.38990216	    -39.82157772	   -247.19607231	    -34.50864491	      7.45311478	     -1.46821819	      2.49818620	    -21.80256155	     48.71811425	      6.78414062	     -1.63325933	      0.50242060	     -8.92154369	     21.80256155	    -48.71811425	     -6.78414062	     -0.86358103	     -0.53193562	      1.10926460	   -106.25474465	   -519.34157456	    120.19909000	    -12.37718590	      2.69238245	      0.69354660	    106.25474465	    519.34157456	   -120.19909000	     59.37511624	     -1.61043990	     45.52686018	    -43.50209510	   -164.95467639	    -41.39703619	      5.56842610	     -1.58222759	      0.45359208	     43.50209510	    164.95467639	     41.39703619	    -21.06836934	      1.04971384	     17.95643693	      9.38469627	    -13.44710290	     26.16815103	     59.37885036	      0.00000000	      0.00000000	      0.00000000	      0.00000000	      0.00000000	      0.00000000	      0.00000000	      0.00000000	      0.00000001	      0.00000000
      0.11274278	     11.26388171	     10.99974154	     11.86280107	      5.02434930	      5.76516121	      6.41372604	    111.66543004	    166.03178314	    220.54979379	    355.66265651	    126.01098108	     10.98176610	      7.77917662	      0.00000000	      4.75327803	      8.25187683	      5.02397210	      4.06291502	     99.47170361	      7.11131285	     10.82699355	      8.16781416	     32.47352521	     24.14609184	      6.91152807	      4.46934401	      4.84054319	     37.88932496	      0.00000000	      0.00000000	      0.00000000	     34.44273866	      0.57579126	      0.00000000	      0.00000000	      0.69127218	      0.00000000	     29.64607617	      4.30429693	      4.68277269	      9.39889015	     17.78733007	      5.28768577	     11.26388171	     10.99974154	     11.86280107	      5.02434930	      5.76516121	      6.41372604	      0.00000000	      8.27980088	     14.84063387	     13.83401797	      2.86326961	     10.98176610	      7.77917662	      0.00000000	      4.75327803	      8.25187683	      6.71106447	      4.06291502	      2.96929993	      7.11131285	     10.82699355	      8.16781416	     32.47352521	     24.14609184	      6.91152807	      4.46934401	      4.84054319	     22.84293669	      0.00000000	      0.00000000	      0.00000000	     17.71450830	      8.96348757	     58.13666698	     57.23513913	      7.44695430	      6.81097510	     16.64918685	      9.27427346	     21.58568302	      3.72822523	     11.94021556	      4.00382461	     47.32001420	     47.32001420	     17.93599291	     17.93599291	     34.91263904	     34.91263904	     42.67343168	    251.27171493	     32.50702556	    -19.40368885	      1.07028183	     16.53305733	    -42.67343168	   -251.27171493	    -32.50702556	      7.46845469	     -1.50902333	      2.52622961	    -20.09461447	     49.37562853	      7.01712900	     -1.71159471	      0.46329486	     -8.20006785	     20.09461447	    -49.37562853	     -7.01712900	     -0.87438802	     -0.50027569	      1.05492706	   -117.45272561	   -537.55191655	    125.74100746	    -12.87413771	      2.94017454	      0.54966507	    117.45272561	    537.55191655	   -125.74100746	     62.01447206	     -1.79958093	     50.22767970	    -45.34678100	   -165.18162081	    -41.43130581	      5.56319967	     -1.63448180	      0.42711462	     45.34678100	    165.18162081	     41.43130581	    -21.08052511	      1.09310189	     18.71509568	      9.12489848	    -13.45852117	     24.91526595	     57.69953622	      0.00000000	      0.00000000	      0.00000000	      0.00000000	      0.00000000	      0.00000000	      0.00000000	      0.00000000	      0.00000001	      0.00000000
      0.11359602	     11.55929356	     10.93919844	     11.79736344	      4.99767015	      5.73576650	      6.38230727	    111.23907920	    165.88850095	    217.74658644	    353.28295449	    126.08816484	     10.92056870	      7.73824169	      0.00000000	      4.73327353	      8.20443479	      5.01423183	      4.09659296	     99.43633165	      7.07211584	     10.76684028	      8.12186625	     32.36026299	     24.01708412	      6.88022435	      4.45071816	      4.95015507	     37.74461830	      0.00000000	      0.00000000	      0.00000000	     36.60657706	      0.59173230	      0.00000000	      0.00000000	      0.42541069	      0.00000000	     28.72821176	      4.64709443	      4.89553799	      9.63335904	     17.93293485	      5.26539873	     11.55929356	     10.93919844	     11.79736344	      4.99767015	      5.73576650	      6.38230727	      0.00000000	      8.23187543	     14.82089708	     13.75895025	      2.84813440	     10.92056870	      7.73824169	      0.00000000	      4.73327353	      8.20443479	      6.68287577	      4.09659296	      2.95334165	      7.07211584	     10.76684028	      8.12186625	     32.36026299	     24.01708412	      6.88022435	      4.45071816	      4.95015507	     22.72181907	      0.00000000	      0.00000000	      0.00000000	     17.94535171	      9.04799149	     58.12247440	     57.13538336	      7.37136122	      6.73076105	     16.61041370	      9.23616257	     21.54150062	      3.70848927	     11.97679410	      4.00591999	     47.06821901	     47.06821901	     17.83398678	     17.83398678	     34.81882513	     34.81882513	     41.80101769	    246.75066903	     32.72481390	    -19.38735055	      1.03905980	     16.16056539	    -41.80101769	   -246.75066903	    -32.72481390	      7.35340835	     -1.48233228	      2.55333210	    -18.07633551	     47.44507617	      7.46373899	     -1.94208522	      0.41458933	     -7.36869580	     18.07633551	    -47.44507617	     -7.46373899	     -0.81974611	     -0.46198662	      0.98114369	   -128.17385512	   -549.96225624	    128.87924379	    -13.18322456	      3.16393975	      0.38759876	    128.17385512	    549.96225624	   -128.87924379	     63.53598403	     -1.98771103	     54.70885034	    -46.60686323	   -164.53620774	    -41.19979053	      5.52761210	     -1.66934214	      0.41066198	     46.60686323	    164.53620774	     41.19979053	    -20.96227137	      1.12298064	     19.23160541	      9.52307320	    -12.83126981	     25.77495837	     60.59510314	      0.00000000	      0.00000000	      0.00000000	      0.00000000	      0.00000000	      0.00000000	      0.00000000	      0.00000000	      0.00000001	      0.00000000
